<svg width="169" height="41" viewBox="0 0 169 41" fill="none" xmlns="http://www.w3.org/2000/svg">
<path d="M26.4369 7.9175C21.0163 8.6142 9.5936 5.61559 8.89689 0.19478L8.81662 0.205101C9.3742 4.54366 11.6325 8.483 15.0945 11.1566C18.5566 13.8302 22.9389 15.019 27.2775 14.4616C29.8806 14.127 32.5101 14.8402 34.5875 16.4443C36.6649 18.0484 38.0198 20.4121 38.3544 23.0152C38.6896 25.6182 37.9768 28.2481 36.3731 30.3256C34.7693 32.4034 32.4059 33.7587 29.8029 34.0939C27.1996 34.4289 24.57 33.7161 22.4923 32.1124C20.4147 30.5086 19.0592 28.1452 18.7241 25.5422C18.448 23.3938 17.7514 21.321 16.6741 19.4419C15.5968 17.5629 14.16 15.9143 12.4456 14.5906C10.7312 13.2668 8.77295 12.2936 6.68248 11.7267C4.59203 11.1597 2.41036 11.0101 0.26207 11.2863L0.2723 11.3659C5.69209 10.6693 11.4812 20.9578 12.1801 26.3791L12.179 26.3792C12.5949 29.6148 13.9608 32.6543 16.104 35.1135C18.2473 37.5727 21.0716 39.3412 24.2199 40.1952C27.3683 41.0493 30.6991 40.9507 33.7914 39.9116C36.8836 38.8727 39.5983 36.9401 41.5923 34.3584C43.586 31.7765 44.7696 28.6615 44.9932 25.4069C45.2168 22.1525 44.4701 18.905 42.848 16.0748C41.2258 13.2446 38.8008 10.9591 35.8797 9.5071C32.9584 8.0551 29.6723 7.502 26.4369 7.9175Z" fill="url(#paint0_linear_14_11)"/>
<path d="M56.7872 10.0958V29H52.9955V10.0958H56.7872ZM68.848 13.7792C70.6355 13.7792 72.0799 14.3479 73.1813 15.4854C74.2827 16.6049 74.8334 18.1757 74.8334 20.1979V29H71.0417V20.7125C71.0417 19.5208 70.7438 18.609 70.148 17.9771C69.5521 17.3271 68.7396 17.0021 67.7105 17.0021C66.6632 17.0021 65.8327 17.3271 65.2188 17.9771C64.623 18.609 64.3251 19.5208 64.3251 20.7125V29H60.5334V13.9958H64.3251V15.8646C64.8306 15.2146 65.4716 14.709 66.248 14.3479C67.0424 13.9687 67.9091 13.7792 68.848 13.7792ZM85.3182 17.1104H82.6911V29H78.8453V17.1104H77.1391V13.9958H78.8453V13.2375C78.8453 11.3958 79.3689 10.0417 80.4161 9.175C81.4634 8.3083 83.0432 7.9021 85.1557 7.9563V11.1521C84.2349 11.134 83.5939 11.2875 83.2328 11.6125C82.8717 11.9375 82.6911 12.5243 82.6911 13.3729V13.9958H85.3182V17.1104ZM89.6983 12.2083C89.0303 12.2083 88.4705 12.0007 88.0192 11.5854C87.5858 11.1521 87.3692 10.6194 87.3692 9.9875C87.3692 9.3556 87.5858 8.8319 88.0192 8.4167C88.4705 7.9833 89.0303 7.7667 89.6983 7.7667C90.3664 7.7667 90.9171 7.9833 91.3504 8.4167C91.8018 8.8319 92.0275 9.3556 92.0275 9.9875C92.0275 10.6194 91.8018 11.1521 91.3504 11.5854C90.9171 12.0007 90.3664 12.2083 89.6983 12.2083ZM91.5671 13.9958V29H87.7754V13.9958H91.5671ZM103.628 13.7792C105.415 13.7792 106.86 14.3479 107.961 15.4854C109.063 16.6049 109.613 18.1757 109.613 20.1979V29H105.822V20.7125C105.822 19.5208 105.524 18.609 104.928 17.9771C104.332 17.3271 103.52 17.0021 102.49 17.0021C101.443 17.0021 100.613 17.3271 99.999 17.9771C99.403 18.609 99.105 19.5208 99.105 20.7125V29H95.3133V13.9958H99.105V15.8646C99.61 15.2146 100.251 14.709 101.028 14.3479C101.822 13.9687 102.689 13.7792 103.628 13.7792ZM115.142 12.2083C114.474 12.2083 113.914 12.0007 113.463 11.5854C113.029 11.1521 112.813 10.6194 112.813 9.9875C112.813 9.3556 113.029 8.8319 113.463 8.4167C113.914 7.9833 114.474 7.7667 115.142 7.7667C115.81 7.7667 116.361 7.9833 116.794 8.4167C117.245 8.8319 117.471 9.3556 117.471 9.9875C117.471 10.6194 117.245 11.1521 116.794 11.5854C116.361 12.0007 115.81 12.2083 115.142 12.2083ZM117.011 13.9958V29H113.219V13.9958H117.011ZM124.223 25.8854H130.913V29H119.917V25.9396L126.471 17.1104H119.944V13.9958H130.832V17.0563L124.223 25.8854ZM132.874 21.4437C132.874 19.9271 133.172 18.5819 133.768 17.4083C134.381 16.2347 135.203 15.3319 136.232 14.7C137.279 14.0681 138.444 13.7521 139.726 13.7521C140.845 13.7521 141.82 13.9778 142.651 14.4292C143.5 14.8806 144.177 15.4493 144.682 16.1354V13.9958H148.501V29H144.682V26.8063C144.195 27.5104 143.518 28.0972 142.651 28.5667C141.802 29.0181 140.818 29.2438 139.699 29.2438C138.435 29.2438 137.279 28.9188 136.232 28.2688C135.203 27.6188 134.381 26.7069 133.768 25.5333C133.172 24.3417 132.874 22.9785 132.874 21.4437ZM144.682 21.4979C144.682 20.5771 144.502 19.7917 144.14 19.1417C143.779 18.4736 143.292 17.9681 142.678 17.625C142.064 17.2639 141.405 17.0833 140.701 17.0833C139.997 17.0833 139.347 17.2549 138.751 17.5979C138.155 17.941 137.668 18.4465 137.288 19.1146C136.927 19.7646 136.747 20.541 136.747 21.4437C136.747 22.3465 136.927 23.141 137.288 23.8271C137.668 24.4951 138.155 25.0097 138.751 25.3708C139.365 25.7319 140.015 25.9125 140.701 25.9125C141.405 25.9125 142.064 25.741 142.678 25.3979C143.292 25.0368 143.779 24.5312 144.14 23.8812C144.502 23.2132 144.682 22.4188 144.682 21.4979ZM154.127 12.2083C153.459 12.2083 152.899 12.0007 152.448 11.5854C152.015 11.1521 151.798 10.6194 151.798 9.9875C151.798 9.3556 152.015 8.8319 152.448 8.4167C152.899 7.9833 153.459 7.7667 154.127 7.7667C154.795 7.7667 155.346 7.9833 155.779 8.4167C156.231 8.8319 156.456 9.3556 156.456 9.9875C156.456 10.6194 156.231 11.1521 155.779 11.5854C155.346 12.0007 154.795 12.2083 154.127 12.2083ZM155.996 13.9958V29H152.204V13.9958H155.996Z" fill="white"/>
<path d="M168.498 22.4893H163V27.9871H168.498V22.4893Z" fill="#3BAAFB"/>
<defs>
<linearGradient id="paint0_linear_14_11" x1="15.303" y1="5.70575" x2="48.2901" y2="43.6409" gradientUnits="userSpaceOnUse">
<stop stop-color="#57B8FF"/>
<stop offset="0.940625" stop-color="#038EF2"/>
<stop offset="1" stop-color="white" stop-opacity="0"/>
</linearGradient>
</defs>
</svg>
